<?xml version="1.0" encoding="UTF-8" standalone="no"?>
<!DOCTYPE svg PUBLIC "-//W3C//DTD SVG 1.1//EN" "http://www.w3.org/Graphics/SVG/1.1/DTD/svg11.dtd">
<svg width="100%" height="100%" viewBox="0 0 1904 431" version="1.1" xmlns="http://www.w3.org/2000/svg" xmlns:xlink="http://www.w3.org/1999/xlink" xml:space="preserve" xmlns:serif="http://www.serif.com/" style="fill-rule:evenodd;clip-rule:evenodd;stroke-linejoin:round;stroke-miterlimit:2;">
    <g transform="matrix(1,0,0,1,-236,-2329.646423)">
        <g transform="matrix(7.937369,0,0,7.937369,-4443.921613,-9514.048095)">
            <path d="M664.397,1513.652L659.856,1516.069C659.139,1514.604 658.252,1513.872 657.194,1513.872C656.69,1513.872 656.259,1514.039 655.901,1514.373C655.542,1514.706 655.363,1515.133 655.363,1515.654C655.363,1516.566 656.421,1517.469 658.537,1518.364C661.451,1519.618 663.412,1520.773 664.421,1521.831C665.43,1522.889 665.935,1524.313 665.935,1526.104C665.935,1528.398 665.088,1530.319 663.396,1531.865C661.752,1533.33 659.766,1534.062 657.439,1534.062C653.451,1534.062 650.627,1532.118 648.967,1528.228L653.654,1526.055C654.305,1527.194 654.802,1527.918 655.144,1528.228C655.811,1528.846 656.609,1529.155 657.536,1529.155C659.392,1529.155 660.319,1528.309 660.319,1526.616C660.319,1525.64 659.603,1524.728 658.171,1523.882C657.618,1523.605 657.064,1523.337 656.511,1523.076C655.958,1522.816 655.396,1522.547 654.826,1522.271C653.231,1521.489 652.108,1520.708 651.457,1519.927C650.627,1518.934 650.212,1517.656 650.212,1516.094C650.212,1514.027 650.92,1512.318 652.336,1510.967C653.785,1509.616 655.542,1508.94 657.61,1508.94C660.653,1508.94 662.916,1510.511 664.397,1513.652Z" style="fill:white;fill-rule:nonzero;"/>
        </g>
        <g transform="matrix(7.937369,0,0,7.937369,-4443.921613,-9514.048095)">
            <path d="M688.396,1546.318L688.396,1530.718C686.215,1532.948 683.724,1534.062 680.925,1534.062C677.719,1534.062 675.057,1532.882 672.942,1530.522C670.809,1528.146 669.743,1525.176 669.743,1521.611C669.743,1517.998 670.809,1514.979 672.942,1512.554C675.09,1510.145 677.784,1508.94 681.023,1508.94C683.773,1508.94 686.231,1510.023 688.396,1512.187L688.396,1509.6L693.913,1509.6L693.913,1546.318L688.396,1546.318ZM675.359,1521.367C675.359,1523.662 675.977,1525.526 677.214,1526.958C678.451,1528.423 680.022,1529.155 681.926,1529.155C683.944,1529.155 685.58,1528.455 686.833,1527.056C688.103,1525.64 688.737,1523.8 688.737,1521.538C688.737,1519.308 688.111,1517.469 686.858,1516.021C685.604,1514.604 683.977,1513.896 681.975,1513.896C680.087,1513.896 678.508,1514.613 677.238,1516.045C675.985,1517.493 675.359,1519.268 675.359,1521.367Z" style="fill:white;fill-rule:nonzero;"/>
        </g>
        <g transform="matrix(7.937369,0,0,7.937369,-4443.921613,-9514.048095)">
            <path d="M706.902,1509.6L706.902,1523.247C706.902,1527.186 708.456,1529.155 711.565,1529.155C714.673,1529.155 716.228,1527.186 716.228,1523.247L716.228,1509.6L721.721,1509.6L721.721,1523.369C721.721,1525.273 721.485,1526.917 721.013,1528.301C720.557,1529.538 719.768,1530.653 718.645,1531.646C716.789,1533.257 714.429,1534.062 711.565,1534.062C708.716,1534.062 706.364,1533.257 704.509,1531.646C703.37,1530.653 702.564,1529.538 702.092,1528.301C701.636,1527.194 701.408,1525.55 701.408,1523.369L701.408,1509.6L706.902,1509.6Z" style="fill:white;fill-rule:nonzero;"/>
        </g>
        <g transform="matrix(7.937369,0,0,7.937369,-4443.921613,-9514.048095)">
            <path d="M746.184,1509.6L751.701,1509.6L751.701,1533.379L746.184,1533.379L746.184,1530.889C743.921,1533.005 741.488,1534.062 738.884,1534.062C735.596,1534.062 732.878,1532.874 730.73,1530.498C728.597,1528.073 727.531,1525.046 727.531,1521.416C727.531,1517.852 728.597,1514.881 730.73,1512.505C732.862,1510.129 735.531,1508.94 738.737,1508.94C741.504,1508.94 743.986,1510.08 746.184,1512.358L746.184,1509.6ZM733.147,1521.416C733.147,1523.695 733.757,1525.55 734.978,1526.982C736.231,1528.431 737.81,1529.155 739.714,1529.155C741.749,1529.155 743.392,1528.455 744.646,1527.056C745.899,1525.607 746.526,1523.768 746.526,1521.538C746.526,1519.308 745.899,1517.469 744.646,1516.021C743.392,1514.604 741.765,1513.896 739.763,1513.896C737.875,1513.896 736.296,1514.613 735.027,1516.045C733.773,1517.493 733.147,1519.284 733.147,1521.416Z" style="fill:white;fill-rule:nonzero;"/>
        </g>
        <g transform="matrix(7.937369,0,0,7.937369,-4443.921613,-9514.048095)">
            <path d="M776.164,1509.6L781.682,1509.6L781.682,1533.379L776.164,1533.379L776.164,1530.889C773.902,1533.005 771.469,1534.062 768.864,1534.062C765.577,1534.062 762.859,1532.874 760.71,1530.498C758.578,1528.073 757.512,1525.046 757.512,1521.416C757.512,1517.852 758.578,1514.881 760.71,1512.505C762.842,1510.129 765.512,1508.94 768.718,1508.94C771.485,1508.94 773.967,1510.08 776.164,1512.358L776.164,1509.6ZM763.127,1521.416C763.127,1523.695 763.737,1525.55 764.958,1526.982C766.211,1528.431 767.79,1529.155 769.694,1529.155C771.729,1529.155 773.373,1528.455 774.626,1527.056C775.879,1525.607 776.506,1523.768 776.506,1521.538C776.506,1519.308 775.879,1517.469 774.626,1516.021C773.373,1514.604 771.745,1513.896 769.743,1513.896C767.855,1513.896 766.277,1514.613 765.007,1516.045C763.754,1517.493 763.127,1519.284 763.127,1521.416Z" style="fill:white;fill-rule:nonzero;"/>
        </g>
        <g transform="matrix(7.937369,0,0,7.937369,-4443.921613,-9514.048095)">
            <path d="M788.615,1509.6L794.109,1509.6L794.109,1511.724C795.118,1510.666 796.013,1509.941 796.794,1509.551C797.592,1509.144 798.536,1508.94 799.626,1508.94C801.075,1508.94 802.588,1509.412 804.167,1510.356L801.652,1515.386C800.611,1514.637 799.594,1514.263 798.601,1514.263C795.606,1514.263 794.109,1516.525 794.109,1521.05L794.109,1533.379L788.615,1533.379L788.615,1509.6Z" style="fill:white;fill-rule:nonzero;"/>
        </g>
        <g transform="matrix(7.937369,0,0,7.937369,-4443.921613,-9514.048095)">
            <path d="M813.567,1492.144L813.567,1517.29L821.306,1509.6L828.679,1509.6L818.352,1519.585L829.436,1533.379L822.307,1533.379L814.445,1523.345L813.567,1524.224L813.567,1533.379L808.073,1533.379L808.073,1492.144L813.567,1492.144Z" style="fill:white;fill-rule:nonzero;"/>
        </g>
        <g transform="matrix(1.981036,0,0,1.981036,-249.353804,-84.698514)">
            <path d="M315.5,1251C354.41,1251 386,1282.59 386,1321.5C386,1360.41 354.41,1392 315.5,1392C276.59,1392 245,1360.41 245,1321.5C245,1282.59 276.59,1251 315.5,1251ZM315.5,1292.667C299.586,1292.667 286.667,1305.586 286.667,1321.5C286.667,1337.414 299.586,1350.333 315.5,1350.333C331.414,1350.333 344.333,1337.414 344.333,1321.5C344.333,1305.586 331.414,1292.667 315.5,1292.667Z" style="fill:rgb(232,64,90);"/>
        </g>
        <g transform="matrix(1.981036,0,0,1.981036,-249.353804,-84.698514)">
            <g transform="matrix(0.582584,0.083832,0.114462,0.935949,5.155408,49.578232)">
                <path d="M350.951,1334.09L323.17,1297.729L452.049,1244.91L479.83,1281.271L350.951,1334.09Z" style="fill:rgb(232,64,90);"/>
            </g>
        </g>
        <g transform="matrix(1.981036,0,0,1.981036,-249.353804,-84.698514)">
            <g transform="matrix(0.617518,-0.262836,0.2163,0.908134,-155.386262,216.256263)">
                <path d="M327.543,1351.095L366.042,1320.416L466.169,1387.309L427.67,1417.987L327.543,1351.095Z" style="fill:rgb(232,64,90);"/>
            </g>
        </g>
    </g>
</svg>
